<?xml version="1.0" standalone="no"?>
<!DOCTYPE svg PUBLIC "-//W3C//DTD SVG 20010904//EN"
 "http://www.w3.org/TR/2001/REC-SVG-20010904/DTD/svg10.dtd">
<svg version="1.0" xmlns="http://www.w3.org/2000/svg"
 width="1024.000000pt" height="1024.000000pt" viewBox="0 0 1024.000000 1024.000000"
 preserveAspectRatio="xMidYMid meet">

<g transform="translate(0.000000,1024.000000) scale(0.100000,-0.100000)"
fill="#000000" stroke="none">
<path d="M1577 8666 c-84 -30 -149 -105 -188 -217 -31 -88 -31 -268 -1 -382
26 -94 84 -220 146 -316 25 -40 46 -73 46 -75 0 -2 -21 -7 -47 -11 -63 -9
-135 -78 -153 -145 -40 -149 68 -358 259 -500 l69 -51 -65 -112 c-81 -138
-197 -369 -257 -511 -279 -653 -366 -1457 -236 -2186 148 -827 596 -1533 1273
-2004 557 -387 1294 -638 2117 -722 212 -21 821 -30 1016 -15 720 57 1302 208
1834 477 656 330 1139 807 1441 1419 363 737 435 1634 204 2531 -87 338 -211
636 -409 978 -47 82 -86 150 -86 151 0 1 17 14 38 28 157 104 281 271 297 402
17 133 -82 265 -199 265 -22 0 -21 3 20 57 53 69 140 256 164 351 55 221 25
406 -86 517 -82 82 -221 108 -314 60 -19 -10 -89 -70 -155 -134 -186 -181
-360 -302 -571 -399 -216 -98 -344 -113 -479 -54 -38 16 -128 55 -200 87 -551
240 -998 358 -1555 411 -236 22 -677 15 -895 -15 -525 -72 -996 -212 -1485
-443 l-155 -73 -105 1 c-123 1 -208 25 -380 105 -202 96 -343 195 -531 375
-75 72 -145 129 -172 142 -54 25 -141 29 -200 8z m211 -307 c339 -319 709
-514 1045 -551 125 -14 166 -5 324 72 243 120 495 221 743 299 432 136 948
198 1432 172 656 -35 1155 -166 1828 -483 142 -66 210 -78 332 -54 239 45 531
184 766 364 41 31 125 105 188 164 63 59 122 108 130 108 26 0 72 -55 84 -101
29 -104 -20 -296 -116 -461 -69 -118 -238 -285 -355 -352 -119 -68 -144 -116
-96 -187 31 -47 75 -58 124 -31 292 155 374 186 418 158 37 -24 32 -63 -16
-135 -47 -70 -104 -124 -209 -194 -154 -103 -164 -125 -97 -225 162 -242 331
-581 439 -877 197 -546 251 -1273 138 -1855 -58 -294 -140 -542 -265 -795
-492 -999 -1513 -1605 -2960 -1755 -285 -29 -733 -32 -1020 -5 -512 48 -939
147 -1367 317 -570 226 -1005 534 -1330 942 -321 401 -519 875 -605 1446 -24
159 -26 204 -27 490 -1 348 9 469 65 757 34 174 107 427 168 580 81 203 226
495 338 676 94 154 91 148 81 184 -7 27 -28 46 -111 102 -125 84 -195 146
-236 209 -44 69 -49 101 -18 131 38 35 84 22 288 -80 97 -49 184 -89 194 -89
9 0 32 15 51 34 27 27 34 42 34 73 0 52 -19 76 -99 122 -147 86 -246 179 -338
316 -129 191 -186 417 -134 531 19 41 54 74 78 74 7 0 57 -41 111 -91z"/>
<path d="M3076 7195 c-773 -127 -1332 -751 -1417 -1582 -63 -618 245 -1259
770 -1598 96 -62 274 -146 381 -180 316 -99 737 -94 1059 12 118 39 287 124
384 193 88 64 230 204 264 260 9 17 20 30 24 30 3 0 14 -19 23 -42 45 -119
239 -384 364 -499 148 -136 197 -151 286 -90 154 106 348 342 461 559 l38 73
18 -31 c33 -54 176 -194 257 -253 193 -139 393 -219 672 -268 121 -22 440 -17
580 9 725 132 1272 732 1361 1494 34 296 -34 653 -185 963 -172 355 -428 619
-761 785 -158 79 -274 119 -437 152 -149 30 -435 32 -573 4 -404 -80 -729
-299 -962 -646 -205 -306 -322 -794 -284 -1189 6 -63 9 -116 7 -119 -3 -2 -34
8 -70 22 -140 56 -294 56 -427 1 -32 -14 -60 -25 -62 -25 -2 0 0 21 4 48 14
84 10 388 -6 501 -56 383 -191 687 -417 938 -223 248 -476 392 -815 463 -132
28 -411 36 -537 15z m465 -220 c264 -43 479 -155 680 -354 165 -164 279 -358
353 -602 62 -204 71 -277 71 -539 -1 -285 -14 -355 -99 -514 -69 -129 -86
-180 -96 -291 -10 -102 -25 -145 -80 -224 -48 -71 -176 -195 -259 -250 -145
-99 -349 -177 -536 -206 -330 -51 -622 -12 -890 120 -401 197 -680 570 -787
1052 -32 144 -31 452 1 603 118 556 467 977 951 1148 224 79 441 96 691 57z
m3635 -1 c171 -29 384 -117 549 -225 113 -75 295 -260 377 -384 122 -183 208
-391 255 -614 22 -107 26 -152 27 -296 0 -253 -39 -429 -145 -655 -207 -436
-574 -717 -1048 -801 -175 -31 -435 -29 -591 4 -318 68 -569 225 -722 449 -54
80 -75 134 -83 214 -9 86 -37 179 -80 264 -79 160 -108 304 -109 545 -1 185
11 291 51 460 125 540 511 936 1008 1036 152 30 349 32 511 3z m-1981 -1898
c194 -52 351 -217 385 -406 12 -61 11 -70 -14 -145 -34 -102 -128 -266 -227
-399 -80 -106 -190 -216 -217 -216 -29 0 -178 165 -254 280 -98 148 -184 315
-198 387 -21 97 9 221 70 301 130 168 297 241 455 198z"/>
<path d="M3405 6095 c-226 -50 -419 -211 -495 -413 -110 -290 -35 -620 183
-806 347 -296 850 -200 1061 204 58 111 80 200 80 325 0 281 -144 517 -389
635 -139 66 -298 87 -440 55z m414 -270 c61 -31 108 -112 97 -167 -23 -121
-159 -175 -265 -105 -129 86 -66 287 91 287 27 0 62 -7 77 -15z"/>
<path d="M6581 6100 c-144 -31 -255 -91 -358 -195 -211 -216 -258 -548 -118
-825 87 -171 243 -300 431 -356 73 -22 245 -25 324 -5 233 58 430 242 507 476
23 70 27 97 27 210 0 115 -3 139 -27 210 -72 217 -242 391 -447 459 -94 31
-255 43 -339 26z m27 -280 c68 -42 95 -122 64 -193 -41 -92 -138 -130 -226
-87 -163 78 -105 300 79 300 32 0 62 -7 83 -20z"/>
<path d="M3830 3030 c-41 -41 -13 -156 66 -273 59 -86 128 -148 212 -189 64
-32 72 -33 182 -33 114 0 118 1 191 37 112 55 209 157 209 219 0 34 -27 66
-61 74 -23 6 -36 -2 -84 -45 -143 -130 -295 -148 -424 -52 -69 52 -116 115
-147 195 -14 37 -34 72 -44 77 -31 16 -79 11 -100 -10z"/>
<path d="M6318 3038 c-9 -7 -34 -49 -55 -92 -100 -210 -288 -293 -463 -206
-19 10 -66 43 -103 74 -74 60 -101 67 -138 37 -55 -44 -14 -138 98 -223 251
-190 590 -100 732 195 23 46 44 104 47 129 6 41 3 49 -19 72 -28 28 -72 34
-99 14z"/>
<path d="M4813 2445 c-52 -37 -34 -121 45 -207 100 -108 238 -151 365 -114
114 33 232 151 244 244 5 34 1 45 -20 66 -34 34 -72 34 -100 -1 -97 -119 -154
-151 -251 -139 -63 7 -115 42 -166 111 -44 59 -74 70 -117 40z"/>
</g>
</svg>
